<svg width="200" height="200" viewBox="0 0 200 200" fill="none" xmlns="http://www.w3.org/2000/svg">
<path d="M48.88 117.56C45.808 117.56 42.976 117.048 40.384 116.024C37.824 114.968 35.824 113.528 34.384 111.704C34.128 111.384 34 111.048 34 110.696C34 110.248 34.24 109.816 34.72 109.4C34.976 109.208 35.248 109.112 35.536 109.112C36.112 109.112 36.624 109.384 37.072 109.928C38.384 111.368 40.032 112.488 42.016 113.288C44.032 114.056 46.32 114.44 48.88 114.44C51.696 114.44 53.872 113.928 55.408 112.904C56.944 111.848 57.712 110.36 57.712 108.44C57.712 106.776 56.96 105.432 55.456 104.408C53.984 103.384 51.472 102.472 47.92 101.672C43.28 100.648 39.936 99.368 37.888 97.832C35.872 96.264 34.864 94.2 34.864 91.64C34.864 88.984 35.984 86.888 38.224 85.352C40.496 83.784 43.552 83 47.392 83C50.304 83 52.928 83.512 55.264 84.536C57.632 85.56 59.312 86.936 60.304 88.664C60.496 88.984 60.592 89.288 60.592 89.576C60.592 90.088 60.32 90.536 59.776 90.92C59.552 91.048 59.296 91.112 59.008 91.112C58.304 91.112 57.76 90.84 57.376 90.296C56.448 88.952 55.136 87.928 53.44 87.224C51.744 86.488 49.728 86.12 47.392 86.12C41.472 86.12 38.512 87.96 38.512 91.64C38.512 92.76 38.816 93.704 39.424 94.472C40.032 95.208 41.008 95.88 42.352 96.488C43.728 97.064 45.632 97.64 48.064 98.216C52.8 99.336 56.208 100.696 58.288 102.296C60.368 103.864 61.408 105.912 61.408 108.44C61.408 111.256 60.272 113.48 58 115.112C55.76 116.744 52.72 117.56 48.88 117.56Z" fill="#C21500"/>
<path d="M80.9279 117.56C77.5999 117.56 74.6719 116.856 72.1439 115.448C69.6479 114.008 67.7119 111.992 66.3359 109.4C64.9599 106.776 64.2719 103.752 64.2719 100.328C64.2719 96.872 64.9599 93.832 66.3359 91.208C67.7119 88.584 69.6479 86.568 72.1439 85.16C74.6719 83.72 77.5839 83 80.8799 83C83.6319 83 86.1599 83.464 88.4639 84.392C90.7999 85.32 92.6239 86.616 93.9359 88.28C94.1919 88.568 94.3199 88.92 94.3199 89.336C94.3199 89.848 94.0959 90.264 93.6479 90.584C93.3599 90.776 93.0399 90.872 92.6879 90.872C92.0799 90.872 91.5679 90.632 91.1519 90.152C90.1279 88.84 88.7359 87.832 86.9759 87.128C85.2159 86.424 83.1839 86.072 80.8799 86.072C78.2239 86.072 75.9199 86.648 73.9679 87.8C72.0159 88.952 70.5119 90.6 69.4559 92.744C68.4319 94.888 67.9199 97.416 67.9199 100.328C67.9199 103.208 68.4319 105.72 69.4559 107.864C70.5119 109.976 72.0159 111.608 73.9679 112.76C75.9519 113.912 78.2719 114.488 80.9279 114.488C83.3919 114.488 85.5359 114.136 87.3599 113.432C89.2159 112.696 90.6719 111.688 91.7279 110.408C92.2079 109.896 92.7199 109.64 93.2639 109.64C93.6479 109.64 93.9679 109.752 94.2239 109.976C94.6719 110.36 94.8959 110.776 94.8959 111.224C94.8959 111.608 94.7519 111.976 94.4639 112.328C93.1519 113.928 91.2799 115.208 88.8479 116.168C86.4479 117.096 83.8079 117.56 80.9279 117.56Z" fill="#C21500"/>
<path d="M109.875 117.56C109.299 117.56 108.851 117.4 108.531 117.08C108.243 116.728 108.099 116.248 108.099 115.64V86.456H97.1065C96.5305 86.456 96.0665 86.344 95.7145 86.12C95.3945 85.864 95.2345 85.496 95.2345 85.016C95.2345 83.992 95.8585 83.48 97.1065 83.48H122.739C123.987 83.48 124.611 83.992 124.611 85.016C124.611 85.464 124.451 85.816 124.131 86.072C123.811 86.328 123.347 86.456 122.739 86.456H111.747V115.64C111.747 116.248 111.57 116.728 111.218 117.08C110.898 117.4 110.451 117.56 109.875 117.56Z" fill="#C21500"/>
<path d="M127.505 117.56C126.961 117.56 126.529 117.4 126.209 117.08C125.889 116.728 125.729 116.248 125.729 115.64V93.944C125.729 90.552 126.689 87.88 128.609 85.928C130.529 83.976 133.169 83 136.529 83C138.481 83 140.273 83.512 141.905 84.536C143.569 85.528 144.817 86.856 145.649 88.52C146.481 86.824 147.697 85.48 149.297 84.488C150.929 83.496 152.753 83 154.769 83C158.129 83 160.769 83.976 162.689 85.928C164.609 87.848 165.569 90.52 165.569 93.944V115.64C165.569 116.248 165.393 116.728 165.041 117.08C164.721 117.4 164.289 117.56 163.745 117.56C163.169 117.56 162.721 117.4 162.401 117.08C162.113 116.728 161.969 116.248 161.969 115.64V93.944C161.969 91.416 161.393 89.48 160.241 88.136C159.121 86.792 157.265 86.12 154.673 86.12C152.401 86.12 150.625 86.824 149.345 88.232C148.065 89.608 147.425 91.512 147.425 93.944V115.64C147.425 116.248 147.265 116.728 146.945 117.08C146.625 117.4 146.193 117.56 145.649 117.56C145.105 117.56 144.673 117.4 144.353 117.08C144.065 116.728 143.921 116.248 143.921 115.64V93.944C143.921 91.576 143.249 89.688 141.905 88.28C140.561 86.84 138.801 86.12 136.625 86.12C134.033 86.12 132.161 86.792 131.009 88.136C129.889 89.48 129.329 91.416 129.329 93.944V115.64C129.329 116.248 129.169 116.728 128.849 117.08C128.529 117.4 128.081 117.56 127.505 117.56Z" fill="#C21500"/>
</svg>
